<svg width="145" height="38" viewBox="0 0 145 38" fill="none" xmlns="http://www.w3.org/2000/svg">
<g filter="url(#filter0_dd_17376_44650)">
<g clip-path="url(#clip0_17376_44650)">
<path d="M3 14.8C3 10.3196 3 8.07937 3.87195 6.36808C4.63893 4.86278 5.86278 3.63893 7.36808 2.87195C9.07937 2 11.3196 2 15.8 2H22.2C26.6804 2 28.9206 2 30.6319 2.87195C32.1372 3.63893 33.3611 4.86278 34.1281 6.36808C35 8.07937 35 10.3196 35 14.8V21.2C35 25.6804 35 27.9206 34.1281 29.6319C33.3611 31.1372 32.1372 32.3611 30.6319 33.1281C28.9206 34 26.6804 34 22.2 34H15.8C11.3196 34 9.07937 34 7.36808 33.1281C5.86278 32.3611 4.63893 31.1372 3.87195 29.6319C3 27.9206 3 25.6804 3 21.2V14.8Z" fill="white"/>
<path d="M3 14.8C3 10.3196 3 8.07937 3.87195 6.36808C4.63893 4.86278 5.86278 3.63893 7.36808 2.87195C9.07937 2 11.3196 2 15.8 2H22.2C26.6804 2 28.9206 2 30.6319 2.87195C32.1372 3.63893 33.3611 4.86278 34.1281 6.36808C35 8.07937 35 10.3196 35 14.8V21.2C35 25.6804 35 27.9206 34.1281 29.6319C33.3611 31.1372 32.1372 32.3611 30.6319 33.1281C28.9206 34 26.6804 34 22.2 34H15.8C11.3196 34 9.07937 34 7.36808 33.1281C5.86278 32.3611 4.63893 31.1372 3.87195 29.6319C3 27.9206 3 25.6804 3 21.2V14.8Z" fill="url(#paint0_linear_17376_44650)"/>
<path fill-rule="evenodd" clip-rule="evenodd" d="M18.9998 4.03861C11.2892 4.03861 5.03861 10.2892 5.03861 17.9998C5.03861 25.7103 11.2892 31.9609 18.9998 31.9609C26.7103 31.9609 32.9609 25.7103 32.9609 17.9998C32.9609 10.2892 26.7103 4.03861 18.9998 4.03861ZM4.96094 17.9998C4.96094 10.2463 11.2463 3.96094 18.9998 3.96094C26.7532 3.96094 33.0386 10.2463 33.0386 17.9998C33.0386 25.7532 26.7532 32.0386 18.9998 32.0386C11.2463 32.0386 4.96094 25.7532 4.96094 17.9998Z" fill="#D0D5DD"/>
<path fill-rule="evenodd" clip-rule="evenodd" d="M19 14.0777C16.8338 14.0777 15.0777 15.8338 15.0777 18C15.0777 20.1662 16.8338 21.9223 19 21.9223C21.1662 21.9223 22.9223 20.1662 22.9223 18C22.9223 15.8338 21.1662 14.0777 19 14.0777ZM15 18C15 15.7909 16.7909 14 19 14C21.2091 14 23 15.7909 23 18C23 20.2091 21.2091 22 19 22C16.7909 22 15 20.2091 15 18Z" fill="#D0D5DD"/>
<path fill-rule="evenodd" clip-rule="evenodd" d="M19 15.3199C17.52 15.3199 16.3203 16.5196 16.3203 17.9995C16.3203 19.4794 17.52 20.6791 19 20.6791C20.4799 20.6791 21.6796 19.4794 21.6796 17.9995C21.6796 16.5196 20.4799 15.3199 19 15.3199ZM16.2427 17.9995C16.2427 16.4767 17.4772 15.2422 19 15.2422C20.5228 15.2422 21.7572 16.4767 21.7572 17.9995C21.7572 19.5223 20.5228 20.7568 19 20.7568C17.4772 20.7568 16.2427 19.5223 16.2427 17.9995Z" fill="#D0D5DD"/>
<path d="M18.9609 2H19.0386V34H18.9609V2Z" fill="#D0D5DD"/>
<path d="M35 17.9609L35 18.0386L3 18.0386L3 17.9609L35 17.9609Z" fill="#D0D5DD"/>
<path d="M29.6021 2H29.6797V34H29.6021V2Z" fill="#D0D5DD"/>
<path d="M13.6406 2H13.7183V34H13.6406V2Z" fill="#D0D5DD"/>
<path d="M24.2817 2H24.3594V34H24.2817V2Z" fill="#D0D5DD"/>
<path d="M8.32031 2H8.39798V34H8.32031V2Z" fill="#D0D5DD"/>
<path d="M35 28.6016L35 28.6792L3 28.6792L3 28.6016L35 28.6016Z" fill="#D0D5DD"/>
<path d="M35 12.6406L35 12.7183L3 12.7183L3 12.6406L35 12.6406Z" fill="#D0D5DD"/>
<path d="M35 23.2812L35 23.3589L3 23.3589L3 23.2812L35 23.2812Z" fill="#D0D5DD"/>
<path d="M35 7.32031L35 7.39798L3 7.39798L3 7.32031L35 7.32031Z" fill="#D0D5DD"/>
<g filter="url(#filter1_dd_17376_44650)">
<circle cx="19" cy="18" r="8" fill="url(#paint1_linear_17376_44650)"/>
</g>
<g filter="url(#filter2_b_17376_44650)">
<path d="M3 18H35V21.2C35 25.6804 35 27.9206 34.1281 29.6319C33.3611 31.1372 32.1372 32.3611 30.6319 33.1281C28.9206 34 26.6804 34 22.2 34H15.8C11.3196 34 9.07937 34 7.36808 33.1281C5.86278 32.3611 4.63893 31.1372 3.87195 29.6319C3 27.9206 3 25.6804 3 21.2V18Z" fill="white" fill-opacity="0.2"/>
</g>
</g>
<path d="M3.1 14.8C3.1 12.5581 3.10008 10.8828 3.20866 9.55376C3.31715 8.22593 3.53345 7.25268 3.96105 6.41348C4.71845 4.92699 5.92699 3.71845 7.41348 2.96105C8.25268 2.53345 9.22593 2.31715 10.5538 2.20866C11.8828 2.10008 13.5581 2.1 15.8 2.1H22.2C24.4419 2.1 26.1172 2.10008 27.4462 2.20866C28.7741 2.31715 29.7473 2.53345 30.5865 2.96105C32.073 3.71845 33.2816 4.92699 34.039 6.41348C34.4665 7.25268 34.6828 8.22593 34.7913 9.55376C34.8999 10.8828 34.9 12.5581 34.9 14.8V21.2C34.9 23.4419 34.8999 25.1172 34.7913 26.4462C34.6828 27.7741 34.4665 28.7473 34.039 29.5865C33.2816 31.073 32.073 32.2816 30.5865 33.039C29.7473 33.4665 28.7741 33.6828 27.4462 33.7913C26.1172 33.8999 24.4419 33.9 22.2 33.9H15.8C13.5581 33.9 11.8828 33.8999 10.5538 33.7913C9.22593 33.6828 8.25268 33.4665 7.41348 33.039C5.92699 32.2816 4.71845 31.073 3.96105 29.5865C3.53345 28.7473 3.31715 27.7741 3.20866 26.4462C3.10008 25.1172 3.1 23.4419 3.1 21.2V14.8Z" stroke="#D0D5DD" stroke-width="0.2"/>
</g>
<path d="M54.0035 10.4541H56.6384V19.9569C56.6384 20.9986 56.3922 21.9148 55.8998 22.7055C55.4121 23.4962 54.7256 24.1141 53.8402 24.5592C52.9547 24.9996 51.9202 25.2197 50.7365 25.2197C49.548 25.2197 48.5111 24.9996 47.6257 24.5592C46.7402 24.1141 46.0537 23.4962 45.566 22.7055C45.0783 21.9148 44.8345 20.9986 44.8345 19.9569V10.4541H47.4694V19.7368C47.4694 20.3428 47.602 20.8826 47.8671 21.3561C48.137 21.8296 48.5158 22.2013 49.0035 22.4711C49.4912 22.7363 50.0688 22.8689 50.7365 22.8689C51.4041 22.8689 51.9817 22.7363 52.4694 22.4711C52.9618 22.2013 53.3406 21.8296 53.6058 21.3561C53.8709 20.8826 54.0035 20.3428 54.0035 19.7368V10.4541Z" fill="white"/>
<path d="M61.9598 18.6075V24.9996H59.3888V14.0905H61.8462V15.9442H61.974C62.225 15.3334 62.6251 14.848 63.1743 14.4882C63.7283 14.1283 64.4125 13.9484 65.2269 13.9484C65.9797 13.9484 66.6355 14.1094 67.1942 14.4314C67.7577 14.7533 68.1933 15.2197 68.501 15.8305C68.8135 16.4413 68.9674 17.1823 68.9627 18.0535V24.9996H66.3916V18.4513C66.3916 17.7221 66.2023 17.1515 65.8235 16.7396C65.4494 16.3277 64.9309 16.1217 64.2681 16.1217C63.8183 16.1217 63.4182 16.2211 63.0678 16.42C62.7221 16.6141 62.4499 16.8959 62.251 17.2652C62.0569 17.6345 61.9598 18.0819 61.9598 18.6075Z" fill="white"/>
<path d="M77.0238 14.0905V16.0791H70.7524V14.0905H77.0238ZM72.3007 11.4768H74.8718V21.7183C74.8718 22.064 74.9238 22.3291 75.028 22.5138C75.1369 22.6937 75.279 22.8168 75.4541 22.8831C75.6293 22.9494 75.8235 22.9825 76.0365 22.9825C76.1975 22.9825 76.3443 22.9707 76.4769 22.947C76.6142 22.9233 76.7184 22.902 76.7894 22.8831L77.2226 24.893C77.0853 24.9404 76.8888 24.9925 76.6331 25.0493C76.3822 25.1061 76.0744 25.1392 75.7098 25.1487C75.0659 25.1676 74.4859 25.0706 73.9698 24.8575C73.4537 24.6397 73.0441 24.3035 72.7411 23.849C72.4428 23.3944 72.296 22.8263 72.3007 22.1444V11.4768Z" fill="white"/>
<path d="M79.174 24.9996V14.0905H81.745V24.9996H79.174ZM80.4666 12.5422C80.0594 12.5422 79.709 12.4072 79.4154 12.1373C79.1219 11.8627 78.9751 11.5336 78.9751 11.1501C78.9751 10.7619 79.1219 10.4328 79.4154 10.1629C79.709 9.88829 80.0594 9.75098 80.4666 9.75098C80.8785 9.75098 81.2289 9.88829 81.5177 10.1629C81.8113 10.4328 81.9581 10.7619 81.9581 11.1501C81.9581 11.5336 81.8113 11.8627 81.5177 12.1373C81.2289 12.4072 80.8785 12.5422 80.4666 12.5422Z" fill="white"/>
<path d="M89.8363 14.0905V16.0791H83.5649V14.0905H89.8363ZM85.1132 11.4768H87.6843V21.7183C87.6843 22.064 87.7363 22.3291 87.8405 22.5138C87.9494 22.6937 88.0915 22.8168 88.2666 22.8831C88.4418 22.9494 88.636 22.9825 88.849 22.9825C89.01 22.9825 89.1568 22.9707 89.2894 22.947C89.4267 22.9233 89.5309 22.902 89.6019 22.8831L90.0351 24.893C89.8978 24.9404 89.7013 24.9925 89.4456 25.0493C89.1947 25.1061 88.8869 25.1392 88.5223 25.1487C87.8784 25.1676 87.2984 25.0706 86.7823 24.8575C86.2662 24.6397 85.8566 24.3035 85.5536 23.849C85.2553 23.3944 85.1085 22.8263 85.1132 22.1444V11.4768Z" fill="white"/>
<path d="M94.7919 10.4541V24.9996H92.2208V10.4541H94.7919Z" fill="white"/>
<path d="M102.265 25.2126C101.171 25.2126 100.227 24.9854 99.4314 24.5308C98.6407 24.0715 98.0323 23.4229 97.6061 22.5848C97.18 21.742 96.9669 20.75 96.9669 19.6089C96.9669 18.4868 97.18 17.5019 97.6061 16.6544C98.037 15.8021 98.6383 15.1392 99.4101 14.6657C100.182 14.1875 101.089 13.9484 102.13 13.9484C102.803 13.9484 103.437 14.0573 104.034 14.2751C104.635 14.4882 105.165 14.8196 105.625 15.2694C106.089 15.7193 106.453 16.2922 106.718 16.9882C106.984 17.6795 107.116 18.5033 107.116 19.4598V20.2481H98.1743V18.5152H104.652C104.647 18.0228 104.54 17.5848 104.332 17.2013C104.124 16.813 103.832 16.5076 103.458 16.2851C103.089 16.0625 102.658 15.9513 102.166 15.9513C101.64 15.9513 101.179 16.0791 100.781 16.3348C100.383 16.5857 100.073 16.9172 99.8505 17.3291C99.6326 17.7363 99.5214 18.1837 99.5166 18.6714V20.1842C99.5166 20.8187 99.6327 21.3632 99.8647 21.8177C100.097 22.2675 100.421 22.6132 100.838 22.8547C101.254 23.0914 101.742 23.2098 102.301 23.2098C102.675 23.2098 103.013 23.1577 103.316 23.0535C103.619 22.9446 103.882 22.786 104.105 22.5777C104.327 22.3693 104.495 22.1113 104.609 21.8035L107.01 22.0734C106.858 22.7079 106.569 23.2619 106.143 23.7354C105.722 24.2041 105.182 24.5687 104.524 24.8291C103.866 25.0848 103.113 25.2126 102.265 25.2126Z" fill="white"/>
<path d="M113.339 25.1913C112.482 25.1913 111.715 24.9711 111.038 24.5308C110.361 24.0905 109.826 23.4513 109.433 22.6132C109.04 21.7751 108.844 20.7571 108.844 19.5592C108.844 18.3471 109.043 17.3244 109.44 16.491C109.843 15.653 110.385 15.0209 111.067 14.5947C111.749 14.1639 112.508 13.9484 113.347 13.9484C113.986 13.9484 114.511 14.0573 114.923 14.2751C115.335 14.4882 115.662 14.7462 115.903 15.0493C116.145 15.3476 116.332 15.6293 116.464 15.8944H116.571V10.4541H119.149V24.9996H116.621V23.2808H116.464C116.332 23.546 116.14 23.8277 115.889 24.126C115.638 24.4195 115.307 24.6705 114.895 24.8788C114.483 25.0872 113.964 25.1913 113.339 25.1913ZM114.057 23.0819C114.601 23.0819 115.065 22.9352 115.449 22.6416C115.832 22.3433 116.124 21.929 116.322 21.3987C116.521 20.8684 116.621 20.2505 116.621 19.545C116.621 18.8395 116.521 18.2264 116.322 17.7055C116.128 17.1847 115.839 16.7799 115.456 16.491C115.077 16.2022 114.611 16.0578 114.057 16.0578C113.484 16.0578 113.006 16.2069 112.622 16.5052C112.239 16.8035 111.95 17.2155 111.756 17.741C111.562 18.2666 111.464 18.8679 111.464 19.545C111.464 20.2268 111.562 20.8353 111.756 21.3703C111.954 21.9006 112.246 22.3196 112.629 22.6274C113.017 22.9304 113.493 23.0819 114.057 23.0819Z" fill="white"/>
<path d="M136.132 10.4541H138.767V19.9569C138.767 20.9986 138.521 21.9148 138.029 22.7055C137.541 23.4962 136.854 24.1141 135.969 24.5592C135.084 24.9996 134.049 25.2197 132.865 25.2197C131.677 25.2197 130.64 24.9996 129.755 24.5592C128.869 24.1141 128.183 23.4962 127.695 22.7055C127.207 21.9148 126.963 20.9986 126.963 19.9569V10.4541H129.598V19.7368C129.598 20.3428 129.731 20.8826 129.996 21.3561C130.266 21.8296 130.645 22.2013 131.132 22.4711C131.62 22.7363 132.198 22.8689 132.865 22.8689C133.533 22.8689 134.111 22.7363 134.598 22.4711C135.091 22.2013 135.47 21.8296 135.735 21.3561C136 20.8826 136.132 20.3428 136.132 19.7368V10.4541Z" fill="white"/>
<path d="M144.266 10.4541V24.9996H141.631V10.4541H144.266Z" fill="white"/>
<defs>
<filter id="filter0_dd_17376_44650" x="0" y="0" width="38" height="38" filterUnits="userSpaceOnUse" color-interpolation-filters="sRGB">
<feFlood flood-opacity="0" result="BackgroundImageFix"/>
<feColorMatrix in="SourceAlpha" type="matrix" values="0 0 0 0 0 0 0 0 0 0 0 0 0 0 0 0 0 0 127 0" result="hardAlpha"/>
<feOffset dy="1"/>
<feGaussianBlur stdDeviation="1"/>
<feColorMatrix type="matrix" values="0 0 0 0 0.0627451 0 0 0 0 0.0941176 0 0 0 0 0.156863 0 0 0 0.06 0"/>
<feBlend mode="normal" in2="BackgroundImageFix" result="effect1_dropShadow_17376_44650"/>
<feColorMatrix in="SourceAlpha" type="matrix" values="0 0 0 0 0 0 0 0 0 0 0 0 0 0 0 0 0 0 127 0" result="hardAlpha"/>
<feOffset dy="1"/>
<feGaussianBlur stdDeviation="1.5"/>
<feColorMatrix type="matrix" values="0 0 0 0 0.0627451 0 0 0 0 0.0941176 0 0 0 0 0.156863 0 0 0 0.1 0"/>
<feBlend mode="normal" in2="effect1_dropShadow_17376_44650" result="effect2_dropShadow_17376_44650"/>
<feBlend mode="normal" in="SourceGraphic" in2="effect2_dropShadow_17376_44650" result="shape"/>
</filter>
<filter id="filter1_dd_17376_44650" x="8" y="8" width="22" height="22" filterUnits="userSpaceOnUse" color-interpolation-filters="sRGB">
<feFlood flood-opacity="0" result="BackgroundImageFix"/>
<feColorMatrix in="SourceAlpha" type="matrix" values="0 0 0 0 0 0 0 0 0 0 0 0 0 0 0 0 0 0 127 0" result="hardAlpha"/>
<feOffset dy="1"/>
<feGaussianBlur stdDeviation="1"/>
<feColorMatrix type="matrix" values="0 0 0 0 0.0627451 0 0 0 0 0.0941176 0 0 0 0 0.156863 0 0 0 0.06 0"/>
<feBlend mode="normal" in2="BackgroundImageFix" result="effect1_dropShadow_17376_44650"/>
<feColorMatrix in="SourceAlpha" type="matrix" values="0 0 0 0 0 0 0 0 0 0 0 0 0 0 0 0 0 0 127 0" result="hardAlpha"/>
<feOffset dy="1"/>
<feGaussianBlur stdDeviation="1.5"/>
<feColorMatrix type="matrix" values="0 0 0 0 0.0627451 0 0 0 0 0.0941176 0 0 0 0 0.156863 0 0 0 0.1 0"/>
<feBlend mode="normal" in2="effect1_dropShadow_17376_44650" result="effect2_dropShadow_17376_44650"/>
<feBlend mode="normal" in="SourceGraphic" in2="effect2_dropShadow_17376_44650" result="shape"/>
</filter>
<filter id="filter2_b_17376_44650" x="-2" y="13" width="42" height="26" filterUnits="userSpaceOnUse" color-interpolation-filters="sRGB">
<feFlood flood-opacity="0" result="BackgroundImageFix"/>
<feGaussianBlur in="BackgroundImageFix" stdDeviation="2.5"/>
<feComposite in2="SourceAlpha" operator="in" result="effect1_backgroundBlur_17376_44650"/>
<feBlend mode="normal" in="SourceGraphic" in2="effect1_backgroundBlur_17376_44650" result="shape"/>
</filter>
<linearGradient id="paint0_linear_17376_44650" x1="19" y1="2" x2="19" y2="34" gradientUnits="userSpaceOnUse">
<stop stop-color="white"/>
<stop offset="1" stop-color="#D0D5DD"/>
</linearGradient>
<linearGradient id="paint1_linear_17376_44650" x1="15" y1="26" x2="23" y2="10" gradientUnits="userSpaceOnUse">
<stop stop-color="#53389E"/>
<stop offset="1" stop-color="#6941C6"/>
</linearGradient>
<clipPath id="clip0_17376_44650">
<path d="M3 14.8C3 10.3196 3 8.07937 3.87195 6.36808C4.63893 4.86278 5.86278 3.63893 7.36808 2.87195C9.07937 2 11.3196 2 15.8 2H22.2C26.6804 2 28.9206 2 30.6319 2.87195C32.1372 3.63893 33.3611 4.86278 34.1281 6.36808C35 8.07937 35 10.3196 35 14.8V21.2C35 25.6804 35 27.9206 34.1281 29.6319C33.3611 31.1372 32.1372 32.3611 30.6319 33.1281C28.9206 34 26.6804 34 22.2 34H15.8C11.3196 34 9.07937 34 7.36808 33.1281C5.86278 32.3611 4.63893 31.1372 3.87195 29.6319C3 27.9206 3 25.6804 3 21.2V14.8Z" fill="white"/>
</clipPath>
</defs>
</svg>
