<svg version="1.1" xmlns="http://www.w3.org/2000/svg" viewBox="0 0 1053.169014520554 1090.0451611039216" width="100%" height="100%">
  <defs></defs>
  <rect x="0" y="0" width="1053.169014520554" height="1090.0451611039216" fill="none"></rect>
  <g stroke-linecap="round" transform="translate(57.749827501143955 85.65792193738889) rotate(0 467.3743591958273 427.1843464229087)">
    <path d="M32 0 C212.42 0.33, 392.96 0.51, 902.75 0 M902.75 0 C922.09 -1.22, 935.27 9.17, 934.75 32 M934.75 32 C936.95 347.13, 936.3 662.68, 934.75 822.37 M934.75 822.37 C935.72 842.27, 924.05 853.82, 902.75 854.37 M902.75 854.37 C713.2 851.67, 524.75 851.89, 32 854.37 M32 854.37 C8.99 853.06, 0.22 844.04, 0 822.37 M0 822.37 C-2.12 575.79, -3.64 330.4, 0 32 M0 32 C1.42 11.02, 11.81 -0.54, 32 0" stroke="currentColor" stroke-width="4.5" fill="none" stroke-dasharray="8 12"></path>
  </g>
  <g stroke-linecap="round" transform="translate(105.14808254543459 214.6672261209187) rotate(0 421.65047187947494 43.12880324629532)">
    <path d="M21.56 0 C284.3 -2.56, 548.79 -3.14, 821.74 0 M21.56 0 C212.92 0.35, 404.5 0.39, 821.74 0 M821.74 0 C834.95 -1.6, 845.26 8.39, 843.3 21.56 M821.74 0 C835.74 -1.01, 842.93 7, 843.3 21.56 M843.3 21.56 C842.24 29.42, 841.37 38.54, 843.3 64.69 M843.3 21.56 C844.2 35.06, 843.32 47.76, 843.3 64.69 M843.3 64.69 C842.9 80.12, 835.64 86.38, 821.74 86.26 M843.3 64.69 C841.95 77.38, 834.2 87.15, 821.74 86.26 M821.74 86.26 C615.72 85.02, 410.75 84.88, 21.56 86.26 M821.74 86.26 C638.74 86.67, 456.55 86.59, 21.56 86.26 M21.56 86.26 C7.21 87.99, -0.14 77.33, 0 64.69 M21.56 86.26 C5.26 86.87, -1.64 78.7, 0 64.69 M0 64.69 C-0.08 47.09, 1.35 33.97, 0 21.56 M0 64.69 C-0.64 54.2, 0.63 43.26, 0 21.56 M0 21.56 C1.75 8.3, 6.21 -1.91, 21.56 0 M0 21.56 C-0.36 6.42, 7.69 -1.77, 21.56 0" stroke="currentColor" stroke-width="4" fill="none"></path>
  </g>
  <g transform="translate(452.9704294249095 240.99602936721385) rotate(0 73.828125 16.800000000000182)">
    <text x="73.828125" y="27.0375" font-family="Inter" font-size="28px" fill="currenColor" text-anchor="middle" style="white-space: pre;" direction="ltr" dominant-baseline="alphabetic">TextField</text>
  </g>
  <g stroke-linecap="round" transform="translate(81.65259039479315 153.80985560299996) rotate(0 444.9372199000627 84.56516274053138)">
    <path d="M32 0 C283.86 -1.59, 536.1 -2.64, 857.87 0 M857.87 0 C878.68 1.77, 890.37 11.9, 889.87 32 M889.87 32 C888.19 71.02, 888.59 110.58, 889.87 137.13 M889.87 137.13 C889.59 160.17, 880.8 167.87, 857.87 169.13 M857.87 169.13 C672.53 170.86, 486.85 170.22, 32 169.13 M32 169.13 C11.36 170.81, 0.62 158.91, 0 137.13 M0 137.13 C1.8 104.79, -0.38 74, 0 32 M0 32 C-1.75 9.33, 12.23 1.79, 32 0" stroke="currentColor" stroke-width="4.5" fill="none" stroke-dasharray="8 12"></path>
  </g>
  <g transform="translate(36.80153675272959 33.335837936754615) rotate(0 32.8125 16.800000000000182)">
    <text x="0" y="27.0375" font-family="Inter" font-size="28px" fill="currentColor" text-anchor="start" style="white-space: pre;" direction="ltr" dominant-baseline="alphabetic">Form</text>
  </g>
  <g transform="translate(77.76217582634672 104.5821074802625) rotate(0 90.234375 16.800000000000182)">
    <text x="0" y="27.0375" font-family="Inter" font-size="28px" fill="currentColor" text-anchor="start" style="white-space: pre;" direction="ltr" dominant-baseline="alphabetic">FormContext</text>
  </g>
  <g stroke-linecap="round" transform="translate(10 10) rotate(0 516.584507260277 535.0225805519608)">
    <path d="M32 0 C367.04 0.32, 704.18 0.73, 1001.17 0 M32 0 C298.27 0.02, 564.39 0.14, 1001.17 0 M1001.17 0 C1020.73 1.42, 1033.14 11.6, 1033.17 32 M1001.17 0 C1020.56 0.63, 1032.49 11.83, 1033.17 32 M1033.17 32 C1029.41 279.38, 1029.41 527.22, 1033.17 1038.05 M1033.17 32 C1033.2 308.57, 1032.74 584.61, 1033.17 1038.05 M1033.17 1038.05 C1032.98 1058.72, 1022.82 1070.26, 1001.17 1070.05 M1033.17 1038.05 C1031.77 1061.21, 1023.62 1067.93, 1001.17 1070.05 M1001.17 1070.05 C733.11 1070.51, 462.95 1070.41, 32 1070.05 M1001.17 1070.05 C704.02 1070.8, 407.71 1071.03, 32 1070.05 M32 1070.05 C11.16 1069.28, 0.98 1058.26, 0 1038.05 M32 1070.05 C12.11 1070.97, 0.53 1060.36, 0 1038.05 M0 1038.05 C2.03 730.93, 2.5 425.38, 0 32 M0 1038.05 C-3.07 762.16, -2.73 486.29, 0 32 M0 32 C1.25 10.1, 12.19 -0.04, 32 0 M0 32 C2.05 9.54, 8.8 -1.4, 32 0" stroke="currentColor" stroke-width="4" fill="none"></path>
  </g>
  <g transform="translate(105.23925933451574 166.1743818362611) rotate(0 73.828125 16.800000000000182)">
    <text x="0" y="27.0375" font-family="Inter" font-size="28px" fill="currentColor" text-anchor="start" style="white-space: pre;" direction="ltr" dominant-baseline="alphabetic">FormField</text>
  </g>
  <g stroke-linecap="round" transform="translate(106.88217485214955 409.113097800413) rotate(0 421.65047187947494 43.12880324629532)">
    <path d="M21.56 0 C286.63 -3.56, 552.38 -2.64, 821.74 0 M21.56 0 C271.21 -0.71, 519.99 -0.72, 821.74 0 M821.74 0 C834.38 -0.06, 845.18 8.15, 843.3 21.56 M821.74 0 C834.11 -1.47, 845.37 9.23, 843.3 21.56 M843.3 21.56 C844.32 36.52, 842.62 52.72, 843.3 64.69 M843.3 21.56 C842.38 30.54, 843.54 41.33, 843.3 64.69 M843.3 64.69 C844.33 80.63, 834.56 84.81, 821.74 86.26 M843.3 64.69 C841.75 80.63, 834.33 84.72, 821.74 86.26 M821.74 86.26 C580.8 84.8, 341.59 85.66, 21.56 86.26 M821.74 86.26 C661.46 84.63, 500.5 84.59, 21.56 86.26 M21.56 86.26 C7.97 86.51, 1.19 79.5, 0 64.69 M21.56 86.26 C6.97 85.06, -0.4 81.19, 0 64.69 M0 64.69 C0.96 53.38, 0.33 45.13, 0 21.56 M0 64.69 C0.48 49.75, 0.1 33.4, 0 21.56 M0 21.56 C-0.24 8.92, 6.43 1.7, 21.56 0 M0 21.56 C1.92 6.13, 4.98 0.45, 21.56 0" stroke="currentColor" stroke-width="4" fill="none"></path>
  </g>
  <g transform="translate(438.2982717316245 435.44190104670815) rotate(0 90.234375 16.800000000000182)">
    <text x="90.234375" y="27.0375" font-family="Inter" font-size="28px" fill="currentColor" text-anchor="middle" style="white-space: pre;" direction="ltr" dominant-baseline="alphabetic">MaskedField</text>
  </g>
  <g stroke-linecap="round" transform="translate(83.38668270150993 348.25572728249426) rotate(0 444.9372199000627 84.56516274053138)">
    <path d="M32 0 C236.62 -1.96, 441.24 -1.49, 857.87 0 M857.87 0 C879.38 -1.38, 889.98 8.93, 889.87 32 M889.87 32 C889.12 61.96, 892.66 96.25, 889.87 137.13 M889.87 137.13 C890.7 158.79, 879.14 170.08, 857.87 169.13 M857.87 169.13 C600.31 171.75, 343.36 171.28, 32 169.13 M32 169.13 C8.97 169.81, 0.24 159.5, 0 137.13 M0 137.13 C-0.53 98.76, -0.73 56.35, 0 32 M0 32 C0.01 11.05, 9.82 -1.66, 32 0" stroke="currentColor" stroke-width="4.5" fill="none" stroke-dasharray="8 12"></path>
  </g>
  <g transform="translate(106.97335164123251 360.6202535157554) rotate(0 73.828125 16.800000000000182)">
    <text x="0" y="27.0375" font-family="Inter" font-size="28px" fill="currentColor" text-anchor="start" style="white-space: pre;" direction="ltr" dominant-baseline="alphabetic">FormField</text>
  </g>
  <g stroke-linecap="round" transform="translate(106.57990188125405 603.4162847058224) rotate(0 421.65047187947494 43.128803246295774)">
    <path d="M21.56 0 C206.6 1.85, 390.38 2.02, 821.74 0 M21.56 0 C284.98 0.4, 548.71 0.64, 821.74 0 M821.74 0 C837.4 1.41, 845.13 6.27, 843.3 21.56 M821.74 0 C835.99 -0.59, 841.98 6.42, 843.3 21.56 M843.3 21.56 C842.59 34.34, 844.36 50.38, 843.3 64.69 M843.3 21.56 C842.93 34.84, 842.89 47.07, 843.3 64.69 M843.3 64.69 C842.73 77.24, 836.11 87.62, 821.74 86.26 M843.3 64.69 C841.98 77.26, 837.48 87.66, 821.74 86.26 M821.74 86.26 C561.34 88.33, 299.75 87.76, 21.56 86.26 M821.74 86.26 C510.73 83.92, 199.72 83.47, 21.56 86.26 M21.56 86.26 C8.13 87.54, 0.22 79.64, 0 64.69 M21.56 86.26 C5.55 84.53, -2.04 81.24, 0 64.69 M0 64.69 C0.11 48.22, 0.78 35.08, 0 21.56 M0 64.69 C0.55 49.51, 1.26 33.37, 0 21.56 M0 21.56 C-1.25 8.98, 8.21 1.37, 21.56 0 M0 21.56 C0.28 9.41, 8.17 -1.09, 21.56 0" stroke="currentColor" stroke-width="4" fill="none"></path>
  </g>
  <g transform="translate(479.011623760729 629.7450879521184) rotate(0 49.21875 16.800000000000182)">
    <text x="49.21875" y="27.0375" font-family="Inter" font-size="28px" fill="currentColor" text-anchor="middle" style="white-space: pre;" direction="ltr" dominant-baseline="alphabetic">Select</text>
  </g>
  <g stroke-linecap="round" transform="translate(83.08440973061442 542.5589141879) rotate(0 444.9372199000627 84.56516274053183)">
    <path d="M32 0 C240.53 1.41, 448.51 0.36, 857.87 0 M857.87 0 C879.65 -1.1, 891.51 11.95, 889.87 32 M889.87 32 C890.73 70.46, 889.69 109.27, 889.87 137.13 M889.87 137.13 C890.7 157.98, 878.56 168.52, 857.87 169.13 M857.87 169.13 C690.51 167.77, 523.44 167.93, 32 169.13 M32 169.13 C10.86 168.66, -1.7 157.9, 0 137.13 M0 137.13 C-1.15 113.66, 1.19 94.55, 0 32 M0 32 C0.53 11.87, 12.01 1.78, 32 0" stroke="currentColor" stroke-width="4.5" fill="none" stroke-dasharray="8 12"></path>
  </g>
  <g transform="translate(106.67107867033701 554.9234404211647) rotate(0 73.828125 16.800000000000182)">
    <text x="0" y="27.0375" font-family="Inter" font-size="28px" fill="currentColor" text-anchor="start" style="white-space: pre;" direction="ltr" dominant-baseline="alphabetic">FormField</text>
  </g>
  <g stroke-linecap="round" transform="translate(747.8441302230331 965.9070851117931) rotate(0 124.37826259026951 43.128803246295774)">
    <path d="M21.56 0 C90.34 0.78, 161.41 -0.56, 227.19 0 M21.56 0 C84.2 -0.93, 146.22 -1.23, 227.19 0 M227.19 0 C241.19 0.13, 249.65 7.88, 248.76 21.56 M227.19 0 C240.8 -0.87, 249.94 6.03, 248.76 21.56 M248.76 21.56 C248.41 35.98, 247.74 48.59, 248.76 64.69 M248.76 21.56 C249.67 32.06, 247.93 41.92, 248.76 64.69 M248.76 64.69 C249.96 78.92, 240.91 87.28, 227.19 86.26 M248.76 64.69 C250.74 80.69, 243.83 87.03, 227.19 86.26 M227.19 86.26 C155.17 84.92, 81.73 86.05, 21.56 86.26 M227.19 86.26 C157.34 85.46, 89.51 85.4, 21.56 86.26 M21.56 86.26 C8.71 85.33, -0.43 79.61, 0 64.69 M21.56 86.26 C8.95 86.85, 2.01 80.12, 0 64.69 M0 64.69 C-0.11 51.87, -1.32 43.16, 0 21.56 M0 64.69 C-1.04 50.49, -0.83 35.89, 0 21.56 M0 21.56 C-1.61 6.31, 8.35 1, 21.56 0 M0 21.56 C-0.93 7.97, 5.67 -2.1, 21.56 0" stroke="currentColor" stroke-width="4" fill="none"></path>
  </g>
  <g transform="translate(823.0036428133026 992.2358883580891) rotate(0 49.21875 16.800000000000182)">
    <text x="49.21875" y="27.0375" font-family="Inter" font-size="28px" fill="currentColor" text-anchor="middle" style="white-space: pre;" direction="ltr" dominant-baseline="alphabetic">Submit</text>
  </g>
  <g stroke-linecap="round" transform="translate(106.82076990636597 803.0313782773819) rotate(0 421.65047187947494 43.128803246295774)">
    <path d="M21.56 0 C323.23 -2.94, 625.13 -2.01, 821.74 0 M21.56 0 C242.88 0.96, 464.27 1.28, 821.74 0 M821.74 0 C836.51 0.2, 841.65 5.79, 843.3 21.56 M821.74 0 C834.98 -1.22, 845.18 7.94, 843.3 21.56 M843.3 21.56 C841.83 32.54, 843.38 47.66, 843.3 64.69 M843.3 21.56 C843.05 37.96, 844.58 53.55, 843.3 64.69 M843.3 64.69 C841.83 77.6, 837.52 84.75, 821.74 86.26 M843.3 64.69 C845.58 81.09, 835.42 84.42, 821.74 86.26 M821.74 86.26 C634.41 84.79, 446.09 84.14, 21.56 86.26 M821.74 86.26 C653.85 87.3, 485.74 86.54, 21.56 86.26 M21.56 86.26 C7.15 86.46, 1.95 80.77, 0 64.69 M21.56 86.26 C5.46 84.91, 0.54 80.79, 0 64.69 M0 64.69 C0.77 56.97, -2.21 45.3, 0 21.56 M0 64.69 C-1.11 51.18, -0.67 38.79, 0 21.56 M0 21.56 C1.26 7.01, 8.11 -1.26, 21.56 0 M0 21.56 C2.1 6.77, 7.62 -0.65, 21.56 0" stroke="currentColor" stroke-width="4" fill="none"></path>
  </g>
  <g transform="translate(462.8462417858409 829.360181523678) rotate(0 65.625 16.800000000000182)">
    <text x="65.625" y="27.0375" font-family="Inter" font-size="28px" fill="currentColor" text-anchor="middle" style="white-space: pre;" direction="ltr" dominant-baseline="alphabetic">Checkbox</text>
  </g>
  <g stroke-linecap="round" transform="translate(83.32527775572999 742.1740077594595) rotate(0 444.9372199000627 84.56516274053183)">
    <path d="M32 0 C255.51 -2.11, 479.1 -2.97, 857.87 0 M857.87 0 C878.37 -0.02, 890.65 11.06, 889.87 32 M889.87 32 C888.02 63.51, 890.65 97.8, 889.87 137.13 M889.87 137.13 C889.79 158.8, 879.49 167.59, 857.87 169.13 M857.87 169.13 C684.01 170.85, 508.46 169.56, 32 169.13 M32 169.13 C12.39 170.87, 1.83 156.99, 0 137.13 M0 137.13 C1.24 115.09, -1.34 87.93, 0 32 M0 32 C-1.31 9.9, 9.71 0.46, 32 0" stroke="currentColor" stroke-width="4.5" fill="none" stroke-dasharray="8 12"></path>
  </g>
  <g transform="translate(106.91194669545257 754.5385339927243) rotate(0 73.828125 16.800000000000182)">
    <text x="0" y="27.0375" font-family="Inter" font-size="28px" fill="currentColor" text-anchor="start" style="white-space: pre;" direction="ltr" dominant-baseline="alphabetic">FormField</text>
  </g>
</svg>